# xmcd
#
# Track frame offsets:
#	150
#	12772
#	27252
#	45737
#	61980
#
# Disc length: 945 seconds
#
# Revision: 0
# Processed by: cddbd v1.5PL3 Copyright (c) Steve Scherf et al.
# Submitted via: audiograbber 1.83.01
#
DISCID=3503af05
DTITLE=LH-Special - Handkäs, Blues and Äppelwoi
DYEAR=1900
DGENRE=Country
TTITLE0=Handkäs-Blues
TTITLE1=Glory Hallelujah
TTITLE2=Love at first Sight
TTITLE3=Lückefüller
TTITLE4=Alles Käse
EXTD=
EXTT0=
EXTT1=
EXTT2=
EXTT3=
EXTT4=
PLAYORDER=
